<svg width="474" height="120" viewBox="0 0 474 120" fill="none" xmlns="http://www.w3.org/2000/svg">
<path d="M0 54.0722C0 30.09 18.1363 13.7127 40.9434 13.7127C58.7279 13.7127 68.6681 23.069 74.1696 32.7847L59.8956 39.8057C56.6171 33.4883 49.6036 28.4583 40.9434 28.4583C27.3729 28.4583 17.0809 39.3416 17.0809 54.0797C17.0809 68.8178 27.3729 79.7011 40.9434 79.7011C49.6036 79.7011 56.6171 74.7909 59.8956 68.3537L74.1696 75.255C68.5558 84.9631 58.7279 94.4392 40.9434 94.4392C18.1363 94.4317 0 78.0544 0 54.0722Z" fill="#E8F4FF"/>
<path d="M222.951 93.032V15.0001H253.714C278.168 15.0001 295.129 30.5616 295.129 54.0722C295.129 77.5828 278.168 93.032 253.714 93.032H222.951ZM239.56 78.4062H253.714C269.156 78.4062 278.168 67.2908 278.168 54.0722C278.168 40.8535 269.747 29.6184 253.714 29.6184H239.56V78.4062Z" fill="#E8F4FF"/>
<path d="M306.948 93.032V15.0001H323.557V93.032H306.948Z" fill="#E8F4FF"/>
<path d="M338.999 93.032V15.0001H394.217V29.2741H355.609V46.2353H393.393V60.5094H355.609V93.032H338.999Z" fill="#E8F4FF"/>
<path d="M427.555 93.032V61.0932L397.488 15.0001H416.44L435.864 46.3551L455.048 15.0001H474L444.164 61.0932V93.032H427.555Z" fill="#E8F4FF"/>
<path d="M88.7131 67.448V52.4704C93.4138 52.433 96.7371 51.1006 98.6982 48.4734C100.569 45.9808 101.67 43.0467 102.007 39.6784C102.254 36.4374 102.381 32.8745 102.381 29.0122C102.381 22.1109 102.733 17.0136 103.444 13.7276C104.11 10.6064 105.42 8.00903 107.373 5.92818C109.327 3.92967 111.887 2.43265 115.046 1.43713C118.287 0.479045 122.636 0 128.085 0H131.393V14.9103C125.862 14.9103 122.366 15.4717 120.914 16.5944C119.417 17.7172 118.668 20.1723 118.668 23.9597C118.668 36.2278 117.897 44.5287 116.363 48.8551C114.821 53.2189 111.685 56.924 106.939 59.963C110.764 62.0438 113.676 65.1426 115.674 69.2594C117.628 73.4211 118.609 82.2984 118.609 95.8988C118.609 98.8479 119.043 100.914 119.918 102.074C120.749 103.242 121.917 104.005 123.414 104.379C124.866 104.754 127.508 104.941 131.341 104.941V119.918H128.1C120.906 119.918 115.457 118.983 111.752 117.112C108.047 115.278 105.577 112.576 104.327 108.998C103.04 105.502 102.396 99.4542 102.396 90.8389C102.396 84.3493 102.044 79.5888 101.333 76.5499C100.667 73.6831 99.3569 71.4975 97.4033 70.0004C95.4497 68.5034 92.5605 67.6501 88.7281 67.4405L88.7131 67.448Z" fill="url(#paint0_linear_2_43)"/>
<path d="M192.591 70.0079C190.637 71.5049 189.328 73.6906 188.661 76.5574C187.958 79.5963 187.598 84.3568 187.598 90.8464C187.598 99.4542 186.955 105.51 185.667 109.005C184.417 112.583 181.947 115.285 178.242 117.119C174.545 118.99 169.095 119.926 161.895 119.926H158.654V104.948C162.479 104.948 165.121 104.761 166.58 104.387C168.077 104.013 169.245 103.242 170.076 102.081C170.952 100.914 171.386 98.8554 171.386 95.9063C171.386 82.3059 172.366 73.4211 174.32 69.2669C176.318 65.1501 179.23 62.0513 183.055 59.9704C178.309 56.9315 175.173 53.2339 173.631 48.8626C172.089 44.5362 171.326 36.2353 171.326 23.9672C171.326 20.1798 170.577 17.7247 169.08 16.6019C167.628 15.4791 164.133 14.9178 158.601 14.9178V0H161.91C167.359 0 171.708 0.479045 174.949 1.43713C178.107 2.43265 180.667 3.92967 182.621 5.92818C184.575 8.00903 185.884 10.6064 186.551 13.7276C187.262 17.0136 187.613 22.1109 187.613 29.0122C187.613 32.8819 187.741 36.4374 187.988 39.6784C188.325 43.0467 189.425 45.9808 191.296 48.4734C193.25 51.0931 196.581 52.4255 201.281 52.4704V67.448C197.456 67.6576 194.567 68.5109 192.606 70.0079H192.591Z" fill="url(#paint1_linear_2_43)"/>
<defs>
<linearGradient id="paint0_linear_2_43" x1="110.046" y1="7.66472" x2="110.068" y2="108.826" gradientUnits="userSpaceOnUse">
<stop stop-color="#2EAC9B"/>
<stop offset="1" stop-color="#2EAC68"/>
</linearGradient>
<linearGradient id="paint1_linear_2_43" x1="179.934" y1="7.66472" x2="179.919" y2="108.826" gradientUnits="userSpaceOnUse">
<stop stop-color="#2EAC9B"/>
<stop offset="1" stop-color="#2EAC68"/>
</linearGradient>
</defs>
</svg>
